# xmcd
#
# Track frame offsets: 
#        150
#        35017
#        73787
#        95840
#        145437
#        182775
#        204260
#        234375
#        262467
#        293525
#
# Disc length: 4291 seconds
#
# Revision: 7
# Processed by: cddbd v1.5.1PL2 Copyright (c) Steve Scherf et al.
# Submitted via: ExactAudioCopy v0.95b4
#
DISCID=9f10c10a
DTITLE=Dave Brubeck Quartet - Park Avenue South
DYEAR=2002
DGENRE=Jazz
TTITLE0=On The Sunny Side Of The Street
TTITLE1=Love For Sale
TTITLE2=Elegy
TTITLE3=Don't Forget Me
TTITLE4=Love Is Just Around The Corner
TTITLE5=On A Slow Boat To China
TTITLE6=I Love Vienna
TTITLE7=Crescent City Stomp
TTITLE8=Take Five
TTITLE9=Show Me The Way To Go Home
EXTD=
EXTT0=
EXTT1=
EXTT2=
EXTT3=
EXTT4=
EXTT5=
EXTT6=
EXTT7=
EXTT8=
EXTT9=
PLAYORDER=
